<svg width="59" height="59" viewBox="0 0 59 59" fill="none" xmlns="http://www.w3.org/2000/svg">
<rect width="59" height="59" fill="#F5F5F5"/>
<rect width="1400" height="4782" transform="translate(-939 -1060)" fill="white"/>
<path d="M52.218 29.7384C52.218 34.1662 50.905 38.4945 48.4451 42.1761C45.9851 45.8577 42.4887 48.7271 38.3979 50.4216C34.3072 52.116 29.8058 52.5594 25.4631 51.6956C21.1204 50.8317 17.1313 48.6995 14.0004 45.5686C10.8695 42.4377 8.73728 38.4486 7.87346 34.1059C7.00964 29.7632 7.45298 25.2619 9.14743 21.1711C10.8419 17.0803 13.7113 13.5839 17.3929 11.124C21.0745 8.664 25.4029 7.35101 29.8307 7.35101C35.7681 7.35101 41.4625 9.70967 45.6609 13.9081C49.8593 18.1066 52.218 23.8009 52.218 29.7384ZM31.3424 1.2288C30.9407 0.829402 30.3972 0.605225 29.8307 0.605225C29.2641 0.605225 28.7206 0.829402 28.3189 1.2288L21.6713 7.87638C21.2762 8.27389 20.7413 8.50096 20.1809 8.50898H10.7456C10.1769 8.50898 9.63149 8.7349 9.22934 9.13705C8.82719 9.5392 8.60126 10.0846 8.60126 10.6534V20.0886C8.60148 20.3716 8.5457 20.6518 8.43713 20.9131C8.32856 21.1744 8.16935 21.4117 7.96867 21.6112L1.32108 28.2587C0.921687 28.6605 0.69751 29.204 0.69751 29.7705C0.69751 30.337 0.921687 30.8805 1.32108 31.2823L7.96867 37.9299C8.35854 38.317 8.58497 38.8389 8.60126 39.3881V48.8234C8.60126 49.3921 8.82719 49.9375 9.22934 50.3397C9.63149 50.7418 10.1769 50.9678 10.7456 50.9678H20.1809C20.4639 50.9675 20.7441 51.0233 21.0054 51.1319C21.2667 51.2405 21.504 51.3997 21.7034 51.6003L28.351 58.2479C28.7528 58.6473 29.2963 58.8715 29.8628 58.8715C30.4293 58.8715 30.9728 58.6473 31.3746 58.2479L38.0222 51.6003C38.4093 51.2105 38.9312 50.984 39.4804 50.9678H48.9157C49.4844 50.9678 50.0298 50.7418 50.432 50.3397C50.8341 49.9375 51.06 49.3921 51.06 48.8234V39.3881C51.0598 39.1051 51.1156 38.8249 51.2242 38.5636C51.3327 38.3023 51.492 38.0651 51.6926 37.8656L58.3402 31.218C58.7396 30.8162 58.9638 30.2727 58.9638 29.7062C58.9638 29.1397 58.7396 28.5962 58.3402 28.1944L51.6926 21.5468C51.3028 21.1597 51.0763 20.6378 51.06 20.0886V10.6534C51.06 10.0846 50.8341 9.5392 50.432 9.13705C50.0298 8.7349 49.4844 8.50898 48.9157 8.50898H39.4804C39.1974 8.5092 38.9172 8.45342 38.6559 8.34485C38.3946 8.23628 38.1574 8.07706 37.9579 7.87638L31.3424 1.2288Z" fill="#93D8E4"/>
<path fill-rule="evenodd" clip-rule="evenodd" d="M47.9722 29.7384C47.9722 33.3264 46.9082 36.8339 44.9148 39.8172C42.9214 42.8006 40.088 45.1258 36.7731 46.4989C33.4582 47.872 29.8106 48.2313 26.2915 47.5313C22.7724 46.8313 19.5399 45.1035 17.0027 42.5663C14.4656 40.0292 12.7378 36.7967 12.0378 33.2776C11.3378 29.7585 11.6971 26.1108 13.0701 22.7959C14.4432 19.481 16.7685 16.6477 19.7518 14.6543C22.7352 12.6609 26.2426 11.5969 29.8307 11.5969C32.2135 11.5955 34.5731 12.0638 36.7748 12.975C38.9765 13.8862 40.9769 15.2224 42.6618 16.9073C44.3467 18.5921 45.6829 20.5926 46.5941 22.7943C47.5053 24.9959 47.9736 27.3556 47.9722 29.7384ZM52.2609 29.7384C52.2609 34.1643 50.949 38.491 48.4909 42.1716C46.0329 45.8523 42.539 48.7218 38.4507 50.4175C34.3625 52.1132 29.8633 52.559 25.5218 51.6986C21.1802 50.8383 17.1911 48.7104 14.0585 45.5837C10.9258 42.4571 8.79028 38.472 7.92162 34.1322C7.05297 29.7923 7.4902 25.2923 9.17807 21.2008C10.8659 17.1093 13.7287 13.6099 17.4046 11.1448C21.0806 8.67969 25.4047 7.35949 29.8307 7.35101C35.7682 7.35101 41.4625 9.70968 45.6609 13.9081C49.8594 18.1066 52.218 23.8009 52.218 29.7384H52.2609Z" fill="#F4D8A5"/>
<path fill-rule="evenodd" clip-rule="evenodd" d="M27.5469 16.0143C29.0586 15.7569 30.6028 15.7569 32.1145 16.0143C32.2553 16.0376 32.3993 16.0328 32.5382 16.0004C32.6772 15.968 32.8084 15.9085 32.9244 15.8254C33.0404 15.7422 33.1389 15.6371 33.2143 15.5159C33.2896 15.3947 33.3403 15.2598 33.3636 15.119C33.3868 14.9782 33.3821 14.8342 33.3497 14.6953C33.3172 14.5563 33.2578 14.4251 33.1746 14.3091C33.0915 14.1931 32.9863 14.0946 32.8651 14.0193C32.7439 13.9439 32.6091 13.8932 32.4683 13.8699C30.7215 13.584 28.9399 13.584 27.1931 13.8699C26.9087 13.9169 26.6547 14.0748 26.4868 14.3091C26.3189 14.5433 26.2509 14.8347 26.2978 15.119C26.3448 15.4034 26.5027 15.6575 26.737 15.8254C26.9712 15.9933 27.2626 16.0612 27.5469 16.0143ZM37.9257 18.416C39.1668 19.3049 40.2535 20.3915 41.1423 21.6326C41.3073 21.8644 41.5575 22.0211 41.838 22.0684C42.1185 22.1156 42.4063 22.0495 42.638 21.8846C42.8698 21.7196 43.0265 21.4694 43.0738 21.1889C43.121 20.9084 43.0549 20.6206 42.89 20.3889C41.8584 18.9497 40.5979 17.6893 39.1588 16.6576C38.927 16.4927 38.6392 16.4266 38.3587 16.4738C38.0782 16.5211 37.828 16.6778 37.6631 16.9096C37.4981 17.1414 37.432 17.4291 37.4793 17.7096C37.5265 17.9901 37.6833 18.2404 37.915 18.4053L37.9257 18.416ZM18.5084 21.6326C19.3972 20.3915 20.4838 19.3049 21.7249 18.416C21.9567 18.2511 22.1134 18.0009 22.1607 17.7204C22.2079 17.4399 22.1418 17.1521 21.9769 16.9203C21.812 16.6886 21.5617 16.5318 21.2812 16.4846C21.0007 16.4373 20.7129 16.5034 20.4812 16.6684C19.042 17.7 17.7816 18.9604 16.75 20.3996C16.585 20.6313 16.5189 20.9191 16.5662 21.1996C16.6134 21.4801 16.7702 21.7304 17.0019 21.8953C17.2337 22.0602 17.5215 22.1263 17.802 22.0791C18.0825 22.0318 18.3327 21.8751 18.4976 21.6433L18.5084 21.6326ZM43.5548 27.4546C43.8121 28.9662 43.8121 30.5105 43.5548 32.0221C43.5078 32.3065 43.5758 32.5979 43.7437 32.8321C43.9116 33.0664 44.1657 33.2243 44.45 33.2712C44.7344 33.3182 45.0258 33.2502 45.26 33.0823C45.4943 32.9144 45.6522 32.6603 45.6991 32.376C45.985 30.6292 45.985 28.8476 45.6991 27.1008C45.6522 26.8164 45.4943 26.5623 45.26 26.3944C45.0258 26.2265 44.7344 26.1586 44.45 26.2055C44.1657 26.2524 43.9116 26.4104 43.7437 26.6446C43.5758 26.8789 43.5078 27.1702 43.5548 27.4546ZM16.0959 32.0221C15.8529 30.5093 15.8529 28.9674 16.0959 27.4546C16.1425 27.1746 16.0761 26.8875 15.9112 26.6563C15.7464 26.4252 15.4967 26.2688 15.2167 26.2216C14.9367 26.175 14.6496 26.2415 14.4185 26.4063C14.1873 26.5711 14.031 26.8209 13.9837 27.1008C13.6978 28.8476 13.6978 30.6292 13.9837 32.376C14.031 32.6559 14.1873 32.9057 14.4185 33.0705C14.6496 33.2353 14.9367 33.3017 15.2167 33.2552C15.4967 33.2079 15.7464 33.0516 15.9112 32.8204C16.0761 32.5893 16.1425 32.3022 16.0959 32.0221ZM21.7357 41.0607C20.4946 40.1719 19.4079 39.0852 18.5191 37.8441C18.3542 37.6124 18.1039 37.4556 17.8234 37.4084C17.5429 37.3611 17.2551 37.4272 17.0234 37.5922C16.7916 37.7571 16.6349 38.0073 16.5876 38.2878C16.5404 38.5683 16.6065 38.8561 16.7714 39.0879C17.803 40.5271 19.0635 41.7875 20.5026 42.8191C20.7344 42.984 21.0222 43.0501 21.3027 43.0029C21.5832 42.9556 21.8334 42.7989 21.9983 42.5671C22.1633 42.3354 22.2294 42.0476 22.1821 41.7671C22.1349 41.4866 21.9781 41.2364 21.7464 41.0714L21.7357 41.0607ZM41.153 37.8441C40.2642 39.0852 39.1776 40.1719 37.9365 41.0607C37.7047 41.2256 37.548 41.4759 37.5007 41.7564C37.4535 42.0369 37.5196 42.3247 37.6845 42.5564C37.8494 42.7882 38.0997 42.9449 38.3802 42.9922C38.6607 43.0394 38.9485 42.9733 39.1802 42.8084C40.6194 41.7768 41.8798 40.5163 42.9114 39.0772C43.0764 38.8454 43.1425 38.5576 43.0952 38.2771C43.048 37.9966 42.8912 37.7464 42.6595 37.5815C42.4277 37.4165 42.1399 37.3504 41.8594 37.3977C41.5789 37.4449 41.3287 37.6017 41.1638 37.8334L41.153 37.8441ZM32.1145 43.4624C30.6028 43.7198 29.0586 43.7198 27.5469 43.4624C27.2626 43.4155 26.9712 43.4835 26.737 43.6514C26.5027 43.8193 26.3448 44.0733 26.2978 44.3577C26.2509 44.6421 26.3189 44.9334 26.4868 45.1677C26.6547 45.4019 26.9087 45.5599 27.1931 45.6068C28.9399 45.8927 30.7215 45.8927 32.4683 45.6068C32.7527 45.5599 33.0067 45.4019 33.1746 45.1677C33.3425 44.9334 33.4105 44.6421 33.3636 44.3577C33.3167 44.0733 33.1587 43.8193 32.9244 43.6514C32.6902 43.4835 32.3988 43.4155 32.1145 43.4624Z" fill="#93D8E4"/>
<path d="M37.7541 24.5597C37.9616 24.5597 38.1607 24.6422 38.3075 24.789C38.4543 24.9357 38.5368 25.1348 38.5368 25.3424V26.3288C38.5143 26.5193 38.4228 26.6949 38.2795 26.8223C38.1362 26.9497 37.9512 27.0201 37.7594 27.0201C37.5677 27.0201 37.3826 26.9497 37.2393 26.8223C37.096 26.6949 37.0045 26.5193 36.9821 26.3288V25.3424C36.9807 25.2396 36.9995 25.1376 37.0375 25.0421C37.0756 24.9466 37.132 24.8595 37.2037 24.7858C37.2754 24.7121 37.3609 24.6533 37.4553 24.6127C37.5498 24.572 37.6513 24.5504 37.7541 24.549V24.5597ZM29.5947 34.1666V33.1801C29.5723 32.9897 29.4807 32.8141 29.3375 32.6867C29.1942 32.5593 29.0091 32.4889 28.8173 32.4889C28.6256 32.4889 28.4405 32.5593 28.2972 32.6867C28.1539 32.8141 28.0624 32.9897 28.04 33.1801V34.1666C28.0271 34.2763 28.0376 34.3875 28.0707 34.4929C28.1039 34.5984 28.159 34.6955 28.2324 34.7781C28.3059 34.8607 28.396 34.9268 28.4968 34.972C28.5976 35.0173 28.7068 35.0407 28.8173 35.0407C28.9278 35.0407 29.0371 35.0173 29.1379 34.972C29.2387 34.9268 29.3288 34.8607 29.4022 34.7781C29.4757 34.6955 29.5308 34.5984 29.5639 34.4929C29.5971 34.3875 29.6076 34.2763 29.5947 34.1666ZM25.9599 34.7455C26.0891 35.41 26.4454 36.0088 26.9677 36.4393C27.49 36.8698 28.1458 37.1053 28.8227 37.1053C29.4996 37.1053 30.1554 36.8698 30.6777 36.4393C31.2 36.0088 31.5563 35.41 31.6854 34.7455H38.1937C38.478 34.7455 38.7507 34.6326 38.9518 34.4315C39.1529 34.2304 39.2658 33.9577 39.2658 33.6733C39.2658 33.389 39.1529 33.1163 38.9518 32.9152C38.7507 32.7141 38.478 32.6012 38.1937 32.6012H37.1215C36.7241 32.6059 36.3332 32.5002 35.9924 32.2957C35.6516 32.0912 35.3743 31.7961 35.1915 31.4432C34.8162 30.8642 34.516 30.1887 34.1944 29.5883C34.13 29.4704 34.0657 29.3524 33.9907 29.2345H37.7862C38.5578 29.2316 39.2969 28.9231 39.8415 28.3765C40.3861 27.8299 40.6919 27.0897 40.6919 26.3181V25.3317C40.716 24.9331 40.6584 24.5338 40.5225 24.1584C40.3865 23.7829 40.1753 23.4392 39.9016 23.1484C39.6279 22.8577 39.2976 22.626 38.9311 22.4676C38.5645 22.3092 38.1694 22.2275 37.7701 22.2275C37.3708 22.2275 36.9758 22.3092 36.6092 22.4676C36.2426 22.626 35.9124 22.8577 35.6387 23.1484C35.365 23.4392 35.1537 23.7829 35.0178 24.1584C34.8819 24.5338 34.8243 24.9331 34.8484 25.3317V26.3181C34.8457 26.5793 34.8819 26.8395 34.9556 27.0901H30.6669C30.3825 27.0901 30.1098 27.2031 29.9087 27.4041C29.7076 27.6052 29.5947 27.8779 29.5947 28.1623C29.5947 28.4466 29.7076 28.7194 29.9087 28.9204C30.1098 29.1215 30.3825 29.2345 30.6669 29.2345C30.9225 29.237 31.1729 29.3067 31.3931 29.4366C31.6132 29.5664 31.7954 29.7518 31.9213 29.9743C32.2201 30.4297 32.4853 30.9063 32.7148 31.4003C32.913 31.8061 33.135 32.2 33.3795 32.5797H31.6854C31.5457 31.9241 31.1851 31.3364 30.6641 30.9147C30.143 30.493 29.493 30.2629 28.8227 30.2629C28.1524 30.2629 27.5024 30.493 26.9813 30.9147C26.4603 31.3364 26.0997 31.9241 25.9599 32.5797H25.2952C25.1022 28.1837 22.4432 27.2188 22.4432 27.2188C22.1801 27.1093 21.8844 27.1088 21.621 27.2173C21.3576 27.3259 21.1481 27.5347 21.0386 27.7977C20.9291 28.0608 20.9286 28.3565 21.0372 28.6199C21.1458 28.8833 21.3545 29.0928 21.6176 29.2023C21.6176 29.2023 22.9793 29.91 23.1508 32.5904H20.0522C19.7678 32.5904 19.4951 32.7034 19.294 32.9045C19.0929 33.1055 18.98 33.3783 18.98 33.6626C18.98 33.947 19.0929 34.2197 19.294 34.4208C19.4951 34.6219 19.7678 34.7348 20.0522 34.7348L25.9599 34.7455Z" fill="#93D8E4"/>
<rect x="27.9639" y="32.474" width="1.65967" height="2.38367" rx="0.829834" fill="white"/>
</svg>
